/* XPM */
static char *_1be01b7221c4b2fa147ddfb4d5564f0[] = {
/* columns rows colors chars-per-pixel */
"32 32 91 1 ",
"  c #00443C",
". c #024B3C",
"X c #0B4F3C",
"o c #0C513B",
"O c #0F5A3B",
"+ c #13573B",
"@ c #155C3B",
"# c #1A5C3A",
"$ c #1C633A",
"% c #2D6A37",
"& c #226239",
"* c #296538",
"= c #256A3A",
"- c #2A6D39",
"; c #316B38",
": c #2E7139",
"> c #3D7437",
", c #3D7A33",
"< c #347539",
"1 c #387738",
"2 c #3D7B38",
"3 c #427E38",
"4 c #5C922F",
"5 c #5C9A2D",
"6 c #478137",
"7 c #4C8436",
"8 c #4F8A36",
"9 c #478138",
"0 c #508235",
"q c #538C36",
"w c #579135",
"e c #5B9534",
"r c #5E9832",
"t c #6A9534",
"y c #639C32",
"u c #689F31",
"i c #739E33",
"p c #63A32D",
"a c #6DA52E",
"s c #6DA82D",
"d c #72A62E",
"f c #73AC2D",
"g c #78AF2F",
"h c #7DB727",
"j c #7FB826",
"k c #77B02A",
"l c #7AB329",
"z c #67A130",
"x c #6BA331",
"c c #76A132",
"v c #7BA332",
"b c #84AF2E",
"n c #83BA26",
"m c #8BBD26",
"M c #8CB52D",
"N c #83BA2A",
"B c #90BD27",
"V c #91B32F",
"C c #93BE28",
"Z c #99B82F",
"A c #82A631",
"S c #85AA30",
"D c #8AAD32",
"F c #96B532",
"G c #9BB830",
"H c #88C125",
"J c #92C325",
"K c #90C823",
"L c #99CD22",
"P c #97C02A",
"I c #9CC22B",
"U c #A4C52C",
"Y c #AAC62C",
"T c #A7CB29",
"R c #ACC92C",
"E c #B4CB2D",
"W c #B9CE2F",
"Q c #A6D024",
"! c #AAD126",
"~ c #AED129",
"^ c #B6D729",
"/ c #BBD22C",
"( c #BDD929",
") c #B5CB30",
"_ c #B8CE30",
"` c #BED230",
"' c #C4D52F",
"] c #C6DA2B",
"[ c #CBDC2C",
"{ c #D4E32C",
"} c None",
/* pixels */
"}}}}}}}}}}}}}}}}}}}}}}}}}}}}}}}}",
"}}}}}}}}}}}}}}}}}}}}}}}}}}}}}}}}",
"}}}}}}}}}}}}WEEEE'[}}}}}}}}}}}}}",
"}}}}}}}}}}RRREE[[YDvvc}}}}}}}}}}",
"}}}}}}}}RRRRY(]V0&O@$:7q}}}}}}}}",
"}}}}}}}UUUUU]U6o @=:298wr}}}}}}}",
"}}}}}}PIPII^b#.#&=-197qeya}}}}}}",
"}}}}}mBBBB!dXX+}}O=298wrxsg}}}}}",
"}}}}nnnnnLfX}}}}}}}}3qeyafl}}}}}",
"}}}}lkllHjo}}}}}}}}}}}exsghn}}}}",
"}}}ffffkN}}}}}`)[['}}}}gfgjmP}}}",
"}}}xaadge}}}`)_'F3;>F}}}NhmJI}}}",
"}}}yyyuu}}}W___}}}$X D}}5KmCU}}}",
"}}weeeee}}/REEW}}}q9&$}}}JCIUR}}",
"}}q8qwq}}}IIUR}}}}sye3}}}a!URR}}",
"}}v:q88}}}nmBP}}}}Hlfx}}}6~URR}}",
"}}R:199}}}fglh}}})RUJN}}}%I~RE}}",
"}}{to22}}}yyxp}}`__)E}}}}@M/RE}}",
"}}''*O<:}}qqeer}}}}}}}}}}+v]EE}}",
"}}){Z.#-}}}29889}}}}}}}}#ov]EW}}",
"}}}_{v @}}}-::232}}}}}}}#Xv[E}}}",
"}}}_`{i o}}}}$=%:1298}}$&oS[_}}}",
"}}}}E`{S@ }}}}}@@#$}}}=-##G[W}}}",
"}}}}WRE[U8#}}}}}}}}}}1:=+%R`}}}}",
"}}}}})RR/^M4,}}}}}}q92:=.7[}}}}}",
"}}}}}}EEYUTQKnksxyw892<=oS}}}}}}",
"}}}}}}}RRUPCmjlfxrw872<$%}}}}}}}",
"}}}}}}}}RYIPmhksxyeq731@}}}}}}}}",
"}}}}}}}}}}ICmjgfxyeq731}}}}}}}}}",
"}}}}}}}}}}}}mnlfxyeq8}}}}}}}}}}}",
"}}}}}}}}}}}}}}}}}}}}}}}}}}}}}}}}",
"}}}}}}}}}}}}}}}}}}}}}}}}}}}}}}}}"
};
