/* XPM */
static char *b467ab6a01df47fbd7e5ca311f92a972[] = {
/* columns rows colors chars-per-pixel */
"16 16 114 2 ",
"   c #002F3E",
".  c #00433E",
"X  c #00473C",
"o  c #074F3B",
"O  c #004B3D",
"+  c #02513C",
"@  c #0E523A",
"#  c #0D573C",
"$  c #0D593C",
"%  c #105B3B",
"&  c #125A3B",
"*  c #1B5D39",
"=  c #1A633B",
"-  c #1E6139",
";  c #1B663B",
":  c #1E643B",
">  c #1D613C",
",  c #24673B",
"<  c #296538",
"1  c #2B6F3A",
"2  c #3E7C39",
"3  c #3F7E38",
"4  c #447736",
"5  c #497E36",
"6  c #417D38",
"7  c #417E38",
"8  c #4D8E2C",
"9  c #5C992B",
"0  c #478238",
"q  c #478239",
"w  c #4A8438",
"e  c #4B8538",
"r  c #498638",
"t  c #518434",
"y  c #538B36",
"u  c #558A36",
"i  c #578F35",
"p  c #5E8C33",
"a  c #518139",
"s  c #509034",
"d  c #539034",
"f  c #569234",
"g  c #589135",
"h  c #599036",
"j  c #5A9236",
"k  c #5D9535",
"l  c #5B9C31",
"z  c #659C33",
"x  c #659E32",
"c  c #7D9436",
"v  c #6DA52F",
"b  c #65A829",
"n  c #6EA82E",
"m  c #70A82F",
"M  c #75AE2D",
"N  c #71B127",
"B  c #7BB625",
"V  c #7CB626",
"C  c #75B02A",
"Z  c #78B12B",
"A  c #7EBB28",
"S  c #7FB82B",
"D  c #68A031",
"F  c #69A231",
"G  c #80B926",
"H  c #85BB25",
"J  c #89BC26",
"K  c #86B32B",
"L  c #90B32F",
"P  c #95B52F",
"I  c #92BE29",
"U  c #9ABC2D",
"Y  c #86A633",
"T  c #96B333",
"R  c #95B530",
"E  c #87C024",
"W  c #9CC627",
"Q  c #96CC21",
"!  c #9DCC24",
"~  c #9AC429",
"^  c #A5CC27",
"/  c #A6C42D",
"(  c #A9C72C",
")  c #A8C62D",
"_  c #ACC42E",
"`  c #B0C82D",
"'  c #B0CA2D",
"]  c #B3C92E",
"[  c #A8D125",
"{  c #A9D225",
"}  c #B0D328",
"|  c #B8D32A",
" . c #BCD62A",
".. c #BDD32C",
"X. c #BDD12E",
"o. c #BFD42C",
"O. c #C1D52B",
"+. c #C4D32F",
"@. c #C2D42D",
"#. c #C5DD29",
"$. c #CFDF2B",
"%. c #CADB2C",
"&. c #C9D92E",
"*. c #CADB2F",
"=. c #CBDC2D",
"-. c #CCDD2D",
";. c #D2DF2E",
":. c #D3E329",
">. c #D4E42A",
",. c #D3E12C",
"<. c #DFE430",
"1. c #E2EC2E",
"2. c #E7F12D",
"3. c None",
/* pixels */
"3.3.3.3.3.3.3...,.3.3.3.3.3.3.3.",
"3.3.3.3.3.` ..>.` R 3.3.3.3.3.3.",
"3.3.3.3./  .| p * $ 1 u 3.3.3.3.",
"3.3.3.I [ ~ @   + ; 6 k F 3.3.3.",
"3.3.V E B 3.3.3.3.3.3.d M G 3.3.",
"3.v m S 3.3.2.1.T c 3.3.N J 3.3.",
"3.f z d 3.$.+.&.3.. a 3.8 { ) 3.",
"3.u 3 e 3.! W 3.3.A l 3.3.} ` 3.",
"3.Y % 3 3.n b 3.<.>.3.3.3.U @.3.",
"3.;.4 O 3.e e g 3.3.3.3.X L &.3.",
"3.&.@.< 3.3., > ; 3.3.3.o P -.3.",
"3.3.-.@.t 3.3.3.3.3.3.= - _ 3.3.",
"3.3.3.@.#.K 9 3.3.h 6 % 5 3.3.3.",
"3.3.3.3.) ^ Q Z z f 0 # 3.3.3.3.",
"3.3.3.3.3.3.H C F g e 3.3.3.3.3.",
"3.3.3.3.3.3.3.3.3.3.3.3.3.3.3.3."
};
