/* XPM */
static char *_0de74f263e744faa59c9b23169f5b8d[] = {
/* columns rows colors chars-per-pixel */
"64 64 117 2 ",
"   c #00363D",
".  c #003E3D",
"X  c #01443D",
"o  c #034A3C",
"O  c #0A4D3C",
"+  c #04513C",
"@  c #0E523B",
"#  c #0F593B",
"$  c #13553B",
"%  c #125A3C",
"&  c #1B5C39",
"*  c #205F39",
"=  c #1E6239",
"-  c #2A6737",
";  c #226339",
":  c #286338",
">  c #256A3A",
",  c #2A6E39",
"<  c #326938",
"1  c #396F38",
"2  c #2D7139",
"3  c #357136",
"4  c #3F7536",
"5  c #3B7935",
"6  c #347539",
"7  c #397539",
"8  c #347839",
"9  c #3C7A38",
"0  c #437537",
"q  c #457B36",
"w  c #497E35",
"e  c #427E38",
"r  c #5A932F",
"t  c #5E992C",
"y  c #478237",
"u  c #4C8537",
"i  c #4F8936",
"p  c #458138",
"a  c #4A8338",
"s  c #598636",
"d  c #538C36",
"f  c #5C8D34",
"g  c #569035",
"h  c #5B9434",
"j  c #5F9833",
"k  c #628D35",
"l  c #669334",
"z  c #6B9533",
"x  c #639C32",
"c  c #6D9D32",
"v  c #769F32",
"b  c #6EA62F",
"n  c #6FA92E",
"m  c #71A52E",
"M  c #73AC2D",
"N  c #7EAD2B",
"B  c #7DB626",
"V  c #7FB825",
"C  c #77B02A",
"Z  c #7AB329",
"A  c #67A032",
"S  c #6BA330",
"D  c #7CA232",
"F  c #82AE2F",
"G  c #8AAE2F",
"H  c #83B727",
"J  c #83BA25",
"K  c #8BBC27",
"L  c #88B02F",
"P  c #83BA2B",
"I  c #8EBC29",
"U  c #90BD27",
"Y  c #93BE29",
"T  c #9BBF2C",
"R  c #82A630",
"E  c #87AC30",
"W  c #98B431",
"Q  c #9AB930",
"!  c #A1BE2E",
"~  c #A7BF31",
"^  c #8CC326",
"/  c #8DC428",
"(  c #93C226",
")  c #93CB23",
"_  c #96C02A",
"`  c #9CC22B",
"'  c #9CD220",
"]  c #A1CE24",
"[  c #A4C52C",
"{  c #AAC62D",
"}  c #A6CC28",
"|  c #ADC92C",
" . c #B4CB2E",
".. c #B8CE2E",
"X. c #A3D421",
"o. c #ABD324",
"O. c #AFD922",
"+. c #B7DA26",
"@. c #BCDD27",
"#. c #B4D329",
"$. c #BCD32C",
"%. c #BED929",
"&. c #AFC730",
"*. c #B6CD30",
"=. c #B9CD30",
"-. c #BED230",
";. c #C3DE27",
":. c #C2D52E",
">. c #C5DA2B",
",. c #CBDD2D",
"<. c #C3D330",
"1. c #CDE129",
"2. c #D3E32A",
"3. c #DAE72B",
"4. c #DCE82E",
"5. c #E2ED2D",
"6. c None",
/* pixels */
"6.6.6.6.6.6.6.6.6.6.6.6.6.6.6.6.6.6.6.6.6.6.6.6.6.6.6.6.6.6.6.6.6.6.6.6.6.6.6.6.6.6.6.6.6.6.6.6.6.6.6.6.6.6.6.6.6.6.6.6.6.6.6.6.",
"6.6.6.6.6.6.6.6.6.6.6.6.6.6.6.6.6.6.6.6.6.6.6.6.6.6.6.6.6.6.6.6.6.6.6.6.6.6.6.6.6.6.6.6.6.6.6.6.6.6.6.6.6.6.6.6.6.6.6.6.6.6.6.6.",
"6.6.6.6.6.6.6.6.6.6.6.6.6.6.6.6.6.6.6.6.6.6.6.6.6.6.6.6.6.6.6.6.6.6.6.6.6.6.6.6.6.6.6.6.6.6.6.6.6.6.6.6.6.6.6.6.6.6.6.6.6.6.6.6.",
"6.6.6.6.6.6.6.6.6.6.6.6.6.6.6.6.6.6.6.6.6.6.6.6.6.6.6.6.6.*.*...*.*.6.6.6.6.6.6.6.6.6.6.6.6.6.6.6.6.6.6.6.6.6.6.6.6.6.6.6.6.6.6.",
"6.6.6.6.6.6.6.6.6.6.6.6.6.6.6.6.6.6.6.6.6.6.6.6.6.6. . . . ... . . .*. .*.*.6.6.6.6.6.6.6.6.6.6.6.6.6.6.6.6.6.6.6.6.6.6.6.6.6.6.",
"6.6.6.6.6.6.6.6.6.6.6.6.6.6.6.6.6.6.6.6.6.6.6. . .*. . . . . . .*. . .*. .*.:.>.,.6.6.6.6.6.6.6.6.6.6.6.6.6.6.6.6.6.6.6.6.6.6.6.",
"6.6.6.6.6.6.6.6.6.6.6.6.6.6.6.6.6.6.6.6. . . .|  . . .|  . . .| |  .>.2.2.:.&.! Q Q &.6.6.6.6.6.6.6.6.6.6.6.6.6.6.6.6.6.6.6.6.6.",
"6.6.6.6.6.6.6.6.6.6.6.6.6.6.6.6.6.6.| | | {  .| | | |  . .| | #.2.1.~ v u 6 > = = ; , e a 6.6.6.6.6.6.6.6.6.6.6.6.6.6.6.6.6.6.6.",
"6.6.6.6.6.6.6.6.6.6.6.6.6.6.6.6.6.{ { { { | { { | | | | {  .2.>.R 0 @ o + % ; 2 2 8 9 e a i d 6.6.6.6.6.6.6.6.6.6.6.6.6.6.6.6.6.",
"6.6.6.6.6.6.6.6.6.6.6.6.6.6.6.{ { { { } { { { { { { { { 1.>.v * . O & ; > , 2 2 8 9 e y a i d g 6.6.6.6.6.6.6.6.6.6.6.6.6.6.6.6.",
"6.6.6.6.6.6.6.6.6.6.6.6.6.6.[ [ [ [ [ [ { } { { { [  .1.E : X @ ; ; = ; > , 2 8 7 9 y y i i d g j 6.6.6.6.6.6.6.6.6.6.6.6.6.6.6.",
"6.6.6.6.6.6.6.6.6.6.6.6.6.[ ` ` [ ` ` [ ` ` [ ` T %.+.q X O ; * * = = > > , 2 7 9 e y u i d g j j j A 6.6.6.6.6.6.6.6.6.6.6.6.6.",
"6.6.6.6.6.6.6.6.6.6.6.6.` ` ` ` ` ` ` ` ` ` ` T @.T & X ; ; * ; * = ; > > 2 8 7 9 y a i d d g j j x S S 6.6.6.6.6.6.6.6.6.6.6.6.",
"6.6.6.6.6.6.6.6.6.6.6.Y _ _ Y Y Y T T _ ` T Y @.F o O : * ; * * = ; > > 2 2 7 9 e y u i d g j j x A S M M 6.6.6.6.6.6.6.6.6.6.6.",
"6.6.6.6.6.6.6.6.6.6.K I I U U U Y Y U Y U Y %.m X $ ; * ; & = ; = ; > , 2 8 8 9 e a u i g h j j A S S M M 6.6.6.6.6.6.6.6.6.6.6.",
"6.6.6.6.6.6.6.6.6.6.K K K K K K K K K K K O.m X $ ; ; 6.6.6.6.6.6.6.6.6.6.6.9 e y a i d g g j j A S b M C C 6.6.6.6.6.6.6.6.6.6.",
"6.6.6.6.6.6.6.6.6.J J P J J P J J K K J X.C X $ 6.6.6.6.6.6.6.6.6.6.6.6.6.6.6.6.a i i d g j x x S b M M C B V 6.6.6.6.6.6.6.6.6.",
"6.6.6.6.6.6.6.6.H P B B V V V J V J V ) J O $ 6.6.6.6.6.6.6.6.6.6.6.6.6.6.6.6.6.6.6.d g h j j c A S M C C B P 6.6.6.6.6.6.6.6.6.",
"6.6.6.6.6.6.6.6.Z Z Z Z B B B B B B J ) ; 6.6.6.6.6.6.6.6.6.6.6.6.6.6.6.6.6.6.6.6.6.6.g j j A A S M M C C V J K 6.6.6.6.6.6.6.6.",
"6.6.6.6.6.6.6.C C C Z C C C C C C C ) 5 6.6.6.6.6.6.6.6.6.6.6.6.6.6.6.6.6.6.6.6.6.6.6.6.j x A S S M C C B J J K Y 6.6.6.6.6.6.6.",
"6.6.6.6.6.6.6.M M M M M C M M C M ^ S 6.6.6.6.6.6.6.6.6.*.=.*.*.*.*.&.=.-.-.6.6.6.6.6.6.6.x A b M M C Z P J J U Y 6.6.6.6.6.6.6.",
"6.6.6.6.6.6.n n M b M M n M M M C P 6.6.6.6.6.6.6.6.*.=.*.*.*.*.*.,.4.,.-.-.,.4.6.6.6.6.6.6.M M M M C B V J K Y ` 6.6.6.6.6.6.6.",
"6.6.6.6.6.6.m b b b b b n b m b P 5 6.6.6.6.6.6.6.=.=.*.=.*.=.*.<.&.l 1 : : 1 k ~ 6.6.6.6.6.6.C C M P B J K K Y _ ` 6.6.6.6.6.6.",
"6.6.6.6.6.A A c S A S S S S S m Z 6.6.6.6.6.6.=.*.=.*.=.*.*.*.:.6.6.6.% # @ O X o s 6.6.6.6.6.6./ C Z P J K Y _ ` [ 6.6.6.6.6.6.",
"6.6.6.6.6.x x x x x x c x x A A 6.6.6.6.6.6.*.*.*...*.*.*.*.*.6.6.6.6.6.2 , ; ; &   < 6.6.6.6.6.t ) Z J J K Y ` ` [ } 6.6.6.6.6.",
"6.6.6.6.6.x x h x x j x x x x x 6.6.6.6.6.6.*. .*. .*...*.*.6.6.6.6.6.6.e 9 6 2 > >   k 6.6.6.6.6.^ J J K I _ ` ` [ { 6.6.6.6.6.",
"6.6.6.6.6.h h h j h j j h x h x 6.6.6.6.6.| |  .|  . . .*.*.6.6.6.6.6.6.6.i p 9 8 2 = % 6.6.6.6.6.i ' H U _ ` ` ` [ { 6.6.6.6.6.",
"6.6.6.6.g h g g g h g h h h h 6.6.6.6.6.6.} { { | |  . . .6.6.6.6.6.6.6.6.h d i a p 9 > 6.6.6.6.6.$ ^ ( K _ ` ` { { { 6.6.6.6.6.",
"6.6.6.6.i g g g g g g g g g g 6.6.6.6.6.` ` [ [ } { { | | 6.6.6.6.6.6.6.S A x h g d u y 6.6.6.6.6.6.r o.I _ ` [ { { | 6.6.6.6.6.",
"6.6.6.6.D 7 g i d i g i d i g 6.6.6.6.6.Y _ Y ` ` ` ` { { 6.6.6.6.6.6.6.Z M n S x j h g 6.6.6.6.6.6.- ] ` ` ` [ { { | | 6.6.6.6.",
"6.6.6.6.<.< y i u i i i i i i 6.6.6.6.6.J P K ^ U ( _ ` 6.6.6.6.6.6.6.6.J V Z C n b A x 6.6.6.6.6.6.O N } ` [ [ { { |  .6.6.6.6.",
"6.6.6.6.5.k # g a a a u u u u 6.6.6.6.6.B B B V J K K K 6.6.6.6.6.6.6.[ ` Y / P B B M n 6.6.6.6.6.6.o d +.` [ } { {  . .6.6.6.6.",
"6.6.6.6.,. .O 6 u p p p p a a 6.6.6.6.6.M C C C B V J P 6.6.6.6.6.6. .{ { } ` ` I J J 6.6.6.6.6.6.6.@ 3 o.[ [ { | |  . .6.6.6.6.",
"6.6.6.6.&.5.s . y p 9 e e e e 6.6.6.6.6.S b n M M M C B 6.6.6.6.6.*.*.*. .| { { [ ` ( 6.6.6.6.6.6.6.& & T  .[ { |  . . .6.6.6.6.",
"6.6.6.6.*.,.$.O = e 9 9 9 9 9 6.6.6.6.6.j A c A S b n n b 6.6.*.*.*.=.=.*.*. .| | | 6.6.6.6.6.6.6.6.& O F +.{ | | |  . .6.6.6.6.",
"6.6.6.6.*.&.5.z   2 9 7 8 7 8 6.6.6.6.6.g h j j x x A A A 6.6.-.*.*.*.*.*..... .6.6.6.6.6.6.6.6.6.6.; o c >.{ |  . . . .6.6.6.6.",
"6.6.6.6.=. .<.,.* o , 7 6 3 6 6.6.6.6.6.i d d g g h j x x 6.6.6.6.6.6.6.6.6.6.6.6.6.6.6.6.6.6.6.6.; ; o f >.{ | |  . .*.6.6.6.6.",
"6.6.6.6.6.=. .4.W . & , 2 2 , 6.6.6.6.6.6.a u i d d d g g x 6.6.6.6.6.6.6.6.6.6.6.6.6.6.6.6.6.6.6.& ; o i >.| |  . .*.6.6.6.6.6.",
"6.6.6.6.6.=. .| 5.s . * > , , > 6.6.6.6.6.9 e e a u i i i g h 6.6.6.6.6.6.6.6.6.6.6.6.6.6.6.6.6.6.* ; o w ;. . . . .*.6.6.6.6.6.",
"6.6.6.6.6.=...*.:.2.: o ; ; > > 6.6.6.6.6.6.6 9 9 e e p a u u d 6.6.6.6.6.6.6.6.6.6.6.6.6.6.6.6.; ; * O w >.|  . . .*.6.6.6.6.6.",
"6.6.6.6.6.=.=.*.&.2.:.O O : = > > 6.6.6.6.6., , 2 8 7 9 9 9 e p u u 6.6.6.6.6.6.6.6.6.6.6.6.6.6.; = * O w ,. . . . .*.6.6.6.6.6.",
"6.6.6.6.6.6.*.=...&.2.&.X O : * ; 6.6.6.6.6.6.; > > 2 , 2 8 8 9 9 e a u 6.6.6.6.6.g g 6.6.6.6.> ; * ; o w 1.| |  .*.6.6.6.6.6.6.",
"6.6.6.6.6.6.*.*. . .| 3.{ X O : = * 6.6.6.6.6.6.6.; ; > > , , , 2 7 7 9 e p y a a a 6.6.6.6.6.> = ; * o f 1. . . .*.6.6.6.6.6.6.",
"6.6.6.6.6.6.*.=.*.*.*.| 3.| $ X ; ; * 6.6.6.6.6.6.6.= = = ; > > > , , 2 2 7 8 9 6.6.6.6.6.6.> ; ; * * X v 1.*. .*. .6.6.6.6.6.6.",
"6.6.6.6.6.6.6.*...*.*. .{ 2.$.< . = ; * 6.6.6.6.6.6.6.6.6.* = ; ; > > > > > 6.6.6.6.6.6.6.2 > > ; = ; o E 1.|  .*.6.6.6.6.6.6.6.",
"6.6.6.6.6.6.6.6. .*. . . .{ >.1.l o X ; ; 6.6.6.6.6.6.6.6.6.6.6.6.6.6.6.6.6.6.6.6.6.6.6.6 , > > = = & @ ! >.*. .*.6.6.6.6.6.6.6.",
"6.6.6.6.6.6.6.6.*.*. . . . .{  .2.T 9 o o = 6.6.6.6.6.6.6.6.6.6.6.6.6.6.6.6.6.6.6.6.6.9 6 2 > > > ; @ - $...*.*.6.6.6.6.6.6.6.6.",
"6.6.6.6.6.6.6.6.6.*.*. . . .| &.[ :.>.E 0 @ X @ 6.6.6.6.6.6.6.6.6.6.6.6.6.6.6.6.6.e 9 9 6 , , > ; * o u 2. .*.*.6.6.6.6.6.6.6.6.",
"6.6.6.6.6.6.6.6.6.6.*. . . .| | { { [ +.+.I r 3 & O 6.6.6.6.6.6.6.6.6.6.6.6.6.i a e 9 9 8 2 , , > = X m 2. . .6.6.6.6.6.6.6.6.6.",
"6.6.6.6.6.6.6.6.6.6.*.*. . . .| { } [ ` T } O.] H m t i i 6.6.6.6.6.6.6.h d d u a y 9 9 8 2 , > > & @ { >.*.6.6.6.6.6.6.6.6.6.6.",
"6.6.6.6.6.6.6.6.6.6.6.*. . .| | { { { ` ` Y Y I ^ ) ) ^ K M n b S A l h g g d i a e e 7 6 6 , > - o 0 1. .6.6.6.6.6.6.6.6.6.6.6.",
"6.6.6.6.6.6.6.6.6.6.6.6. . .| | { { [ [ ` T Y I K V B B C C n b S x x j h g d i u y e 9 6 2 , , ; . D 3.6.6.6.6.6.6.6.6.6.6.6.6.",
"6.6.6.6.6.6.6.6.6.6.6.6.6.*. .| | { } ` ` ` Y K K J B B C M M m A x x j h g d i u y e 9 8 6 , , $ ; $.6.6.6.6.6.6.6.6.6.6.6.6.6.",
"6.6.6.6.6.6.6.6.6.6.6.6.6.6.|  .{ { { [ ` ` _ U K J B B Z C n m b A x j h g d d u a e 9 6 6 2 : X f 6.6.6.6.6.6.6.6.6.6.6.6.6.6.",
"6.6.6.6.6.6.6.6.6.6.6.6.6.6.6.6.{ { { [ [ ` _ K K J J B C C M m b A x j h g g i u y e 9 9 6 2 * o 6.6.6.6.6.6.6.6.6.6.6.6.6.6.6.",
"6.6.6.6.6.6.6.6.6.6.6.6.6.6.6.6.6.{ { { ` ` ` U K H J Z B M M m b A x j h g g i u a y e 9 8 > ; 6.6.6.6.6.6.6.6.6.6.6.6.6.6.6.6.",
"6.6.6.6.6.6.6.6.6.6.6.6.6.6.6.6.6.6.6.{ ` ` Y Y U J J B Z C M n S A x j j h g i u u p 9 9 6 6.6.6.6.6.6.6.6.6.6.6.6.6.6.6.6.6.6.",
"6.6.6.6.6.6.6.6.6.6.6.6.6.6.6.6.6.6.6.6.6.` ` Y K P J B Z C M M b S x x j g g d i a p e 6.6.6.6.6.6.6.6.6.6.6.6.6.6.6.6.6.6.6.6.",
"6.6.6.6.6.6.6.6.6.6.6.6.6.6.6.6.6.6.6.6.6.6.6.Y Y K J J Z C C n m A c j j g g d i u 6.6.6.6.6.6.6.6.6.6.6.6.6.6.6.6.6.6.6.6.6.6.",
"6.6.6.6.6.6.6.6.6.6.6.6.6.6.6.6.6.6.6.6.6.6.6.6.6.6.6.P Z Z M n M A A x j h g 6.6.6.6.6.6.6.6.6.6.6.6.6.6.6.6.6.6.6.6.6.6.6.6.6.",
"6.6.6.6.6.6.6.6.6.6.6.6.6.6.6.6.6.6.6.6.6.6.6.6.6.6.6.6.6.6.6.6.6.6.6.6.6.6.6.6.6.6.6.6.6.6.6.6.6.6.6.6.6.6.6.6.6.6.6.6.6.6.6.6.",
"6.6.6.6.6.6.6.6.6.6.6.6.6.6.6.6.6.6.6.6.6.6.6.6.6.6.6.6.6.6.6.6.6.6.6.6.6.6.6.6.6.6.6.6.6.6.6.6.6.6.6.6.6.6.6.6.6.6.6.6.6.6.6.6.",
"6.6.6.6.6.6.6.6.6.6.6.6.6.6.6.6.6.6.6.6.6.6.6.6.6.6.6.6.6.6.6.6.6.6.6.6.6.6.6.6.6.6.6.6.6.6.6.6.6.6.6.6.6.6.6.6.6.6.6.6.6.6.6.6.",
"6.6.6.6.6.6.6.6.6.6.6.6.6.6.6.6.6.6.6.6.6.6.6.6.6.6.6.6.6.6.6.6.6.6.6.6.6.6.6.6.6.6.6.6.6.6.6.6.6.6.6.6.6.6.6.6.6.6.6.6.6.6.6.6."
};
